<svg xmlns="http://www.w3.org/2000/svg" viewBox="0 0 430 250" width="100%" height="100%">
  <g stroke="#ffffff" stroke-width="4.5" stroke-linecap="round" stroke-linejoin="round" fill="none">
    
    <path d="M 10 160 
             C 20 130, 40 120, 50 155 
             C 65 90, 85 80, 95 150 
             C 110 110, 120 130, 130 155" />

    <line x1="130" y1="72" x2="130" y2="175" />
    <line x1="136" y1="48" x2="136" y2="185" />
    <line x1="142" y1="78" x2="142" y2="164" />
    <line x1="148" y1="68" x2="148" y2="102" />
    <line x1="154" y1="83" x2="154" y2="118" />
    <line x1="160" y1="97" x2="160" y2="133" />
    <line x1="166" y1="112" x2="166" y2="148" />
    <line x1="172" y1="128" x2="172" y2="162" />
    <line x1="178" y1="142" x2="178" y2="178" />
    <line x1="184" y1="82" x2="184" y2="165" />
    <line x1="190" y1="55" x2="190" y2="175" />
    <line x1="196" y1="68" x2="196" y2="162" />

    <line x1="214" y1="148" x2="214" y2="172" />
    <line x1="220" y1="118" x2="220" y2="175" />
    <line x1="226" y1="88" x2="226" y2="168" />
    
    <line x1="232" y1="62" x2="232" y2="102" />
    <line x1="232" y1="128" x2="232" y2="142" />
    
    <line x1="238" y1="45" x2="238" y2="92" />
    <line x1="238" y1="132" x2="238" y2="145" />
    
    <line x1="244" y1="58" x2="244" y2="105" />
    <line x1="244" y1="128" x2="244" y2="142" />

    <line x1="250" y1="85" x2="250" y2="172" />
    <line x1="256" y1="122" x2="256" y2="168" />
    <line x1="262" y1="145" x2="262" y2="175" />

    <line x1="280" y1="58" x2="280" y2="132" />
    <line x1="286" y1="82" x2="286" y2="155" />
    <line x1="292" y1="105" x2="292" y2="172" />
    <line x1="298" y1="122" x2="298" y2="185" />
    <line x1="304" y1="118" x2="304" y2="168" />
    <line x1="310" y1="98" x2="310" y2="148" />
    <line x1="316" y1="78" x2="316" y2="128" />
    <line x1="322" y1="62" x2="322" y2="108" />

    <line x1="340" y1="62" x2="340" y2="168" />
    <line x1="346" y1="45" x2="346" y2="185" />
    <line x1="352" y1="58" x2="352" y2="172" />
    
    <line x1="358" y1="58" x2="358" y2="78" />
    <line x1="358" y1="108" x2="358" y2="128" />
    <line x1="358" y1="152" x2="358" y2="175" />
    
    <line x1="364" y1="62" x2="364" y2="72" />
    <line x1="364" y1="112" x2="364" y2="122" />
    <line x1="364" y1="158" x2="364" y2="168" />
    
    <line x1="370" y1="55" x2="370" y2="75" />
    <line x1="370" y1="105" x2="370" y2="125" />
    <line x1="370" y1="155" x2="370" y2="172" />
    
    <line x1="376" y1="60" x2="376" y2="78" />
    <line x1="376" y1="152" x2="376" y2="178" />
    
    <line x1="382" y1="158" x2="382" y2="168" />

    <line x1="20" y1="145" x2="20" y2="150" />
    <line x1="50" y1="165" x2="50" y2="170" />
    <line x1="70" y1="135" x2="70" y2="145" />
    <line x1="115" y1="130" x2="115" y2="140" />
    <line x1="205" y1="150" x2="205" y2="160" />
    <line x1="270" y1="100" x2="270" y2="110" />
    <line x1="330" y1="160" x2="330" y2="170" />
    <line x1="390" y1="80" x2="390" y2="90" />
    <line x1="400" y1="140" x2="400" y2="160" />
    <line x1="410" y1="120" x2="410" y2="130" />
  </g>

  <text x="215" y="230" font-family="Arial, Helvetica, sans-serif" font-size="28" font-weight="bold" fill="#ffffff" text-anchor="middle" letter-spacing="6">
    CONFORMER
  </text>
</svg>
