<svg xmlns="http://www.w3.org/2000/svg" viewBox="0 0 520 200" width="100%" height="100%" style="background-color: transparent;">
  
  <path 
    d="
      M 15 160 
      C 25 160, 30 160, 40 160 
      
      L 40 60 L 46 60 L 46 160 L 52 160 L 52 60 
      
      C 65 60, 75 110, 81 110 
      C 87 110, 95 160, 110 160 
      
      L 110 60 L 116 60 L 116 160 L 122 160 L 122 60 
      
      C 135 60, 145 160, 160 160 
      
      L 160 60 L 166 60 L 166 160 L 172 160 L 172 60 
      
      C 180 60, 190 60, 200 60 
      
      L 200 110 
      
      C 190 120, 180 120, 172 110 
      C 180 100, 190 100, 200 110 
      
      L 200 160 L 206 160 L 206 60 L 212 60 L 212 160 
      
      C 225 160, 235 60, 250 60 
      
      L 250 160 L 256 160 L 256 60 L 262 60 L 262 160 
      
      C 275 160, 280 110, 281 110 
      C 285 110, 290 60, 300 60 
      
      L 300 160 L 306 160 L 306 60 L 312 60 L 312 160 L 318 160 L 318 60 
      
      C 330 60, 340 60, 350 60 
      
      L 350 160 L 356 160 L 356 60 L 362 60 L 362 160 
      
      C 375 160, 385 170, 400 160 
      C 385 150, 375 120, 362 110 
      C 375 110, 380 120, 390 110 
      C 380 100, 370 70, 362 60 
      C 375 60, 385 70, 400 60 
      
      C 410 50, 420 110, 440 110 
      C 460 110, 470 160, 500 160
    " 
    fill="none" 
    stroke="#ffffff" 
    stroke-width="3.5" 
    stroke-linecap="round" 
    stroke-linejoin="round"
  />

  <text x="260" y="195" font-family="monospace, sans-serif" font-size="16" font-weight="bold" fill="#ffffff" text-anchor="middle" letter-spacing="5">
    CONFORMER
  </text>
</svg>
